<svg xmlns="http://www.w3.org/2000/svg" viewBox="0 0 512 512">
  <defs>
    <linearGradient id="bg" x1="64" y1="32" x2="448" y2="480" gradientUnits="userSpaceOnUse"><stop stop-color="#24252f"/><stop offset="1" stop-color="#16171d"/></linearGradient>
    <linearGradient id="screen" x1="128" y1="112" x2="384" y2="400" gradientUnits="userSpaceOnUse"><stop stop-color="#c084fc"/><stop offset="1" stop-color="#863bff"/></linearGradient>
  </defs>
  <rect width="512" height="512" rx="112" fill="url(#bg)"/>
  <!-- Friendly TV -->
  <rect x="104" y="84" width="304" height="224" rx="42" fill="#1f2028"/>
  <rect x="126" y="106" width="260" height="170" rx="26" fill="url(#screen)"/>
  <circle cx="189" cy="136" r="7" fill="#f4eaff" fill-opacity=".55"/>
  <circle cx="215" cy="136" r="7" fill="#f4eaff" fill-opacity=".35"/>
  <path d="M214 70 190 42M298 70l24-28" stroke="#c084fc" stroke-linecap="round" stroke-width="12"/>
  <!-- Cozy couch -->
  <path d="M74 368c0-33 27-60 60-60h244c33 0 60 27 60 60v49H74z" fill="#c084fc"/>
  <rect x="96" y="328" width="320" height="92" rx="38" fill="#d8b4fe"/>
  <path d="M118 342h112c20 0 36 16 36 36v42H118c-20 0-36-16-36-36v-6c0-20 16-36 36-36ZM394 342H282c-20 0-36 16-36 36v42h148c20 0 36-16 36-36v-6c0-20-16-36-36-36Z" fill="#b06cf2"/>
  <path d="M102 420h308" stroke="#8b5cf6" stroke-linecap="round" stroke-width="16"/>
</svg>
